<?xml version="1.0" encoding="UTF-8"?>
<!DOCTYPE svg PUBLIC "-//W3C//DTD SVG 1.1//EN" "http://www.w3.org/Graphics/SVG/1.1/DTD/svg11.dtd">
<svg xmlns="http://www.w3.org/2000/svg" version="1.1" width="500px" height="500px" style="shape-rendering:geometricPrecision; text-rendering:geometricPrecision; image-rendering:optimizeQuality; fill-rule:evenodd; clip-rule:evenodd" xmlns:xlink="http://www.w3.org/1999/xlink">
<g><path style="opacity:1" fill="#063022" d="M 400.5,125.5 C 400.833,143.179 400.5,160.846 399.5,178.5C 398.37,166.189 397.536,153.856 397,141.5C 396.83,152.674 396.33,163.674 395.5,174.5C 394.704,158.847 394.371,143.18 394.5,127.5C 373.419,134.538 352.419,141.871 331.5,149.5C 328.215,141.264 325.215,132.931 322.5,124.5C 320.167,124.5 317.833,124.5 315.5,124.5C 315.523,126.927 316.023,129.26 317,131.5C 319.958,138.238 322.792,144.904 325.5,151.5C 324.965,153.446 323.632,154.446 321.5,154.5C 321.813,151.753 321.48,149.086 320.5,146.5C 315.29,149.593 309.624,150.259 303.5,148.5C 304.167,147.833 304.833,147.167 305.5,146.5C 303.721,144.807 303.221,142.807 304,140.5C 304.333,140.833 304.667,141.167 305,141.5C 305.333,137.5 305.667,133.5 306,129.5C 307.402,127.027 308.902,127.027 310.5,129.5C 309.681,131.916 310.348,132.082 312.5,130C 311.751,128.266 311.251,126.433 311,124.5C 299.44,125.189 287.273,126.189 274.5,127.5C 274.06,126.302 273.727,125.135 273.5,124C 271.398,124.256 269.398,124.089 267.5,123.5C 293.371,114.848 319.037,115.682 344.5,126C 349.1,127.583 350.934,126.083 350,121.5C 338.893,115.764 327.06,112.598 314.5,112C 292.392,110.074 271.226,113.574 251,122.5C 230.154,113.262 208.321,109.762 185.5,112C 173.809,112.462 162.975,115.629 153,121.5C 151.92,124.237 152.754,125.904 155.5,126.5C 163.455,122.762 171.789,120.428 180.5,119.5C 182.942,119.119 183.609,119.786 182.5,121.5C 185.372,122.958 188.372,124.125 191.5,125C 187.443,131.326 184.443,138.159 182.5,145.5C 185.187,145.664 187.854,145.497 190.5,145C 189.346,144.086 189.513,143.253 191,142.5C 193.069,143.264 195.236,143.764 197.5,144C 195.941,144.98 194.274,145.813 192.5,146.5C 193.729,147.281 195.062,147.781 196.5,148C 194.357,149.54 192.19,149.706 190,148.5C 187.759,148.68 187.259,149.513 188.5,151C 197.268,151.058 205.935,151.725 214.5,153C 203.898,154.403 193.231,154.903 182.5,154.5C 182.167,154.5 181.833,154.5 181.5,154.5C 180.041,154.567 178.708,154.234 177.5,153.5C 180.554,143.728 183.888,134.061 187.5,124.5C 184.881,124.232 182.381,124.565 180,125.5C 176.867,133.424 174.034,141.424 171.5,149.5C 150.489,142.163 129.489,134.83 108.5,127.5C 108.333,140.171 108.5,152.838 109,165.5C 118.252,171.094 119.919,178.428 114,187.5C 111.847,203.596 109.18,219.596 106,235.5C 100.755,242.324 95.7546,249.324 91,256.5C 89.6106,258.227 87.9439,259.561 86,260.5C 84.3468,260.18 83.3468,259.18 83,257.5C 81.8238,248.098 80.3238,238.764 78.5,229.5C 82.5641,216.808 86.7308,204.141 91,191.5C 91.9453,185.148 92.9453,178.815 94,172.5C 96.0043,169.91 98.5043,167.91 101.5,166.5C 102.333,152.512 102.833,138.512 103,124.5C 150.334,102.922 197.834,81.4217 245.5,60C 250.257,59.1902 254.924,59.5236 259.5,61C 305.05,82.2966 351.05,102.63 397.5,122C 399.063,122.759 400.063,123.926 400.5,125.5 Z M 251.5,86.5 C 251.611,87.1174 251.944,87.6174 252.5,88C 250.277,88.5662 248.277,89.3995 246.5,90.5C 245.167,90.5 243.833,90.5 242.5,90.5C 242.167,89.8333 241.833,89.1667 241.5,88.5C 244.763,87.5178 248.097,86.8511 251.5,86.5 Z"/></g>
<g><path style="opacity:0.813" fill="#e5f2f0" d="M 251.5,86.5 C 258.027,86.4308 263.694,88.5975 268.5,93C 261.407,90.9762 254.073,90.1429 246.5,90.5C 248.277,89.3995 250.277,88.5662 252.5,88C 251.944,87.6174 251.611,87.1174 251.5,86.5 Z"/></g>
<g><path style="opacity:0.416" fill="#d3eae3" d="M 241.5,88.5 C 241.833,89.1667 242.167,89.8333 242.5,90.5C 240.061,92.035 237.394,92.8683 234.5,93C 236.551,90.9798 238.884,89.4798 241.5,88.5 Z"/></g>
<g><path style="opacity:1" fill="#f2f8f6" d="M 267.5,123.5 C 262.074,125.627 256.574,127.627 251,129.5C 228.413,118.697 204.913,115.364 180.5,119.5C 171.789,120.428 163.455,122.762 155.5,126.5C 152.754,125.904 151.92,124.237 153,121.5C 162.975,115.629 173.809,112.462 185.5,112C 208.321,109.762 230.154,113.262 251,122.5C 271.226,113.574 292.392,110.074 314.5,112C 327.06,112.598 338.893,115.764 350,121.5C 350.934,126.083 349.1,127.583 344.5,126C 319.037,115.682 293.371,114.848 267.5,123.5 Z"/></g>
<g><path style="opacity:1" fill="#012e1e" d="M 267.5,123.5 C 269.398,124.089 271.398,124.256 273.5,124C 273.727,125.135 274.06,126.302 274.5,127.5C 287.273,126.189 299.44,125.189 311,124.5C 311.251,126.433 311.751,128.266 312.5,130C 310.348,132.082 309.681,131.916 310.5,129.5C 308.902,127.027 307.402,127.027 306,129.5C 305.667,133.5 305.333,137.5 305,141.5C 304.667,141.167 304.333,140.833 304,140.5C 303.221,142.807 303.721,144.807 305.5,146.5C 304.833,147.167 304.167,147.833 303.5,148.5C 309.624,150.259 315.29,149.593 320.5,146.5C 321.48,149.086 321.813,151.753 321.5,154.5C 321.167,154.5 320.833,154.5 320.5,154.5C 320.167,154.5 319.833,154.5 319.5,154.5C 306.458,154.147 293.458,154.647 280.5,156C 275.79,157.688 271.457,159.855 267.5,162.5C 263.543,165.122 259.876,168.122 256.5,171.5C 254.852,172.81 253.186,174.143 251.5,175.5C 250.148,174.476 248.815,173.476 247.5,172.5C 239.087,164.459 229.087,159.292 217.5,157C 205.7,155.972 194.033,155.139 182.5,154.5C 193.231,154.903 203.898,154.403 214.5,153C 205.935,151.725 197.268,151.058 188.5,151C 187.259,149.513 187.759,148.68 190,148.5C 192.19,149.706 194.357,149.54 196.5,148C 195.062,147.781 193.729,147.281 192.5,146.5C 194.274,145.813 195.941,144.98 197.5,144C 195.236,143.764 193.069,143.264 191,142.5C 189.513,143.253 189.346,144.086 190.5,145C 187.854,145.497 185.187,145.664 182.5,145.5C 184.443,138.159 187.443,131.326 191.5,125C 188.372,124.125 185.372,122.958 182.5,121.5C 183.609,119.786 182.942,119.119 180.5,119.5C 204.913,115.364 228.413,118.697 251,129.5C 256.574,127.627 262.074,125.627 267.5,123.5 Z"/></g>
<g><path style="opacity:1" fill="#eff7f5" d="M 177.5,153.5 C 176.237,151.193 174.237,149.859 171.5,149.5C 174.034,141.424 176.867,133.424 180,125.5C 182.381,124.565 184.881,124.232 187.5,124.5C 183.888,134.061 180.554,143.728 177.5,153.5 Z"/></g>
<g><path style="opacity:1" fill="#f1f8f6" d="M 331.5,149.5 C 328.99,149.054 326.99,149.72 325.5,151.5C 322.792,144.904 319.958,138.238 317,131.5C 316.023,129.26 315.523,126.927 315.5,124.5C 317.833,124.5 320.167,124.5 322.5,124.5C 325.215,132.931 328.215,141.264 331.5,149.5 Z"/></g>
<g><path style="opacity:1" fill="#0c360e" d="M 319.5,154.5 C 310.342,155.33 301.009,155.83 291.5,156C 283.163,157.059 275.163,159.226 267.5,162.5C 271.457,159.855 275.79,157.688 280.5,156C 293.458,154.647 306.458,154.147 319.5,154.5 Z"/></g>
<g><path style="opacity:1" fill="#0d351c" d="M 173.5,156.5 C 176.518,156.335 179.518,156.502 182.5,157C 180.392,157.36 178.392,158.027 176.5,159C 171.111,163.389 165.444,167.389 159.5,171C 155.532,171.942 151.532,172.775 147.5,173.5C 151.792,178.148 157.126,180.981 163.5,182C 162.09,183.372 160.423,184.205 158.5,184.5C 153.201,184.402 148.535,182.735 144.5,179.5C 139.576,177.001 136.576,173.001 135.5,167.5C 135.198,164.941 135.532,162.607 136.5,160.5C 145.571,168.581 154.571,168.414 163.5,160C 166.561,157.965 169.895,156.799 173.5,156.5 Z"/></g>
<g><path style="opacity:0.353" fill="#98a99f" d="M 136.5,160.5 C 135.532,162.607 135.198,164.941 135.5,167.5C 134.2,164.976 134.2,162.309 135.5,159.5C 136.107,159.624 136.44,159.957 136.5,160.5 Z"/></g>
<g><path style="opacity:1" fill="#093612" d="M 328.5,156.5 C 330.999,160.469 334.666,162.802 339.5,163.5C 340.034,165.614 341.034,167.448 342.5,169C 346.102,170.757 349.768,171.924 353.5,172.5C 350.482,172.665 347.482,172.498 344.5,172C 337.004,166.751 329.337,161.751 321.5,157C 323.81,156.503 326.143,156.337 328.5,156.5 Z"/></g>
<g><path style="opacity:1" fill="#8db258" d="M 319.5,154.5 C 319.833,154.5 320.167,154.5 320.5,154.5C 323.5,155.167 326.5,155.833 329.5,156.5C 329.167,156.5 328.833,156.5 328.5,156.5C 326.143,156.337 323.81,156.503 321.5,157C 329.337,161.751 337.004,166.751 344.5,172C 347.482,172.498 350.482,172.665 353.5,172.5C 353.833,172.5 354.167,172.5 354.5,172.5C 354.141,174.371 353.141,175.871 351.5,177C 347.611,179.112 343.611,180.945 339.5,182.5C 340.325,183.386 341.325,183.719 342.5,183.5C 347.229,186.262 352.229,188.762 357.5,191C 358.793,191.49 360.127,191.657 361.5,191.5C 364.884,195.369 368.884,198.536 373.5,201C 369.858,203.408 365.858,204.075 361.5,203C 355.183,201.175 349.516,198.341 344.5,194.5C 346.389,193.678 348.389,192.845 350.5,192C 346.553,190.846 342.553,190.013 338.5,189.5C 330.037,186.235 321.37,183.568 312.5,181.5C 311.448,181.649 310.448,181.483 309.5,181C 313.647,177.951 318.313,176.284 323.5,176C 322.095,174.731 320.429,174.231 318.5,174.5C 313.684,173.35 308.684,173.184 303.5,174C 287.806,174.952 273.14,179.286 259.5,187C 257.963,188.707 256.296,190.207 254.5,191.5C 255.569,189.031 256.902,186.698 258.5,184.5C 264.757,178.783 271.924,174.449 280,171.5C 280.167,171.167 280.333,170.833 280.5,170.5C 273.925,168.948 268.259,170.614 263.5,175.5C 260.422,175.413 258.089,174.08 256.5,171.5C 259.876,168.122 263.543,165.122 267.5,162.5C 275.163,159.226 283.163,157.059 291.5,156C 301.009,155.83 310.342,155.33 319.5,154.5 Z"/></g>
<g><path style="opacity:1" fill="#123728" d="M 328.5,156.5 C 328.833,156.5 329.167,156.5 329.5,156.5C 330.873,156.343 332.207,156.51 333.5,157C 338.001,159.416 342.334,162.083 346.5,165C 354.561,168.132 361.228,166.298 366.5,159.5C 367.737,167.697 365.071,174.363 358.5,179.5C 358.167,179.5 357.833,179.5 357.5,179.5C 356.105,177.307 355.105,174.974 354.5,172.5C 354.167,172.5 353.833,172.5 353.5,172.5C 349.768,171.924 346.102,170.757 342.5,169C 341.034,167.448 340.034,165.614 339.5,163.5C 334.666,162.802 330.999,160.469 328.5,156.5 Z"/></g>
<g><path style="opacity:1" fill="#0f3b13" d="M 241.5,177.5 C 243.016,179.186 244.35,181.019 245.5,183C 245.164,184.03 244.497,184.53 243.5,184.5C 241.37,182.873 239.37,181.04 237.5,179C 232.14,176.657 227.14,173.824 222.5,170.5C 225.845,169.441 229.178,169.608 232.5,171C 235.883,172.686 238.883,174.853 241.5,177.5 Z"/></g>
<g><path style="opacity:1" fill="#0e3a0e" d="M 258.5,184.5 C 257.427,183.749 257.26,182.749 258,181.5C 259.626,179.195 261.46,177.195 263.5,175.5C 268.259,170.614 273.925,168.948 280.5,170.5C 280.333,170.833 280.167,171.167 280,171.5C 271.924,174.449 264.757,178.783 258.5,184.5 Z"/></g>
<g><path style="opacity:1" fill="#8eb358" d="M 181.5,154.5 C 181.833,154.5 182.167,154.5 182.5,154.5C 194.033,155.139 205.7,155.972 217.5,157C 229.087,159.292 239.087,164.459 247.5,172.5C 248.433,177.908 246.433,179.575 241.5,177.5C 238.883,174.853 235.883,172.686 232.5,171C 229.178,169.608 225.845,169.441 222.5,170.5C 227.14,173.824 232.14,176.657 237.5,179C 239.37,181.04 241.37,182.873 243.5,184.5C 249.045,191.411 248.378,192.078 241.5,186.5C 235.018,182.599 228.018,179.766 220.5,178C 213.52,176.559 206.52,175.226 199.5,174C 193.984,173.183 188.65,173.349 183.5,174.5C 182.022,174.238 180.689,174.571 179.5,175.5C 184.175,176.582 188.508,178.415 192.5,181C 182.681,182.329 173.348,185.163 164.5,189.5C 160.378,189.697 156.378,190.53 152.5,192C 154.439,192.908 155.439,194.408 155.5,196.5C 154.29,196.932 153.29,197.599 152.5,198.5C 145.609,202.174 138.276,203.341 130.5,202C 129.167,201.333 129.167,200.667 130.5,200C 134.614,197.716 138.28,194.883 141.5,191.5C 147.349,189.403 153.015,187.069 158.5,184.5C 160.423,184.205 162.09,183.372 163.5,182C 157.126,180.981 151.792,178.148 147.5,173.5C 151.532,172.775 155.532,171.942 159.5,171C 165.444,167.389 171.111,163.389 176.5,159C 178.392,158.027 180.392,157.36 182.5,157C 179.518,156.502 176.518,156.335 173.5,156.5C 176.167,155.833 178.833,155.167 181.5,154.5 Z"/></g>
<g><path style="opacity:1" fill="#06321b" d="M 318.5,174.5 C 320.429,174.231 322.095,174.731 323.5,176C 318.313,176.284 313.647,177.951 309.5,181C 310.448,181.483 311.448,181.649 312.5,181.5C 312.414,182.496 312.748,183.329 313.5,184C 316.167,184.333 318.833,184.667 321.5,185C 325.998,187.131 330.664,188.964 335.5,190.5C 336.262,191.628 336.929,192.795 337.5,194C 342.844,196.002 347.511,199.002 351.5,203C 349.381,203.342 349.047,204.175 350.5,205.5C 344.895,203.191 339.562,200.525 334.5,197.5C 330.326,194.912 325.993,192.579 321.5,190.5C 322.684,189.312 322.684,188.145 321.5,187C 318.77,186.272 316.103,186.438 313.5,187.5C 312.749,186.624 312.249,185.624 312,184.5C 311.667,184.833 311.333,185.167 311,185.5C 307.021,181.915 302.521,180.915 297.5,182.5C 299.396,183.466 301.396,183.799 303.5,183.5C 303.5,184.5 303.5,185.5 303.5,186.5C 297.461,186.226 291.461,185.559 285.5,184.5C 281.184,185.319 276.85,186.152 272.5,187C 268.964,189.366 265.297,191.533 261.5,193.5C 259.344,195.629 257.677,197.962 256.5,200.5C 251.287,202.558 246.954,201.391 243.5,197C 242.552,196.517 241.552,196.351 240.5,196.5C 240.371,194.784 240.038,193.117 239.5,191.5C 243.482,194.476 247.482,197.476 251.5,200.5C 256.304,197.195 260.638,193.362 264.5,189C 275.055,183.056 286.388,180.056 298.5,180C 304.786,176.685 311.452,174.852 318.5,174.5 Z"/></g>
<g><path style="opacity:1" fill="#083612" d="M 183.5,174.5 C 189.424,173.966 194.757,175.466 199.5,179C 212.928,179.477 225.594,182.81 237.5,189C 238.381,189.708 239.047,190.542 239.5,191.5C 234.735,189.618 230.068,187.452 225.5,185C 217.962,182.395 210.129,180.895 202,180.5C 194.661,182.433 187.161,183.933 179.5,185C 169.866,188.525 160.866,193.025 152.5,198.5C 153.29,197.599 154.29,196.932 155.5,196.5C 158.358,193.914 161.358,191.58 164.5,189.5C 173.348,185.163 182.681,182.329 192.5,181C 188.508,178.415 184.175,176.582 179.5,175.5C 180.689,174.571 182.022,174.238 183.5,174.5 Z"/></g>
<g><path style="opacity:1" fill="#093412" d="M 354.5,172.5 C 355.105,174.974 356.105,177.307 357.5,179.5C 353.277,183.113 348.277,184.447 342.5,183.5C 341.325,183.719 340.325,183.386 339.5,182.5C 343.611,180.945 347.611,179.112 351.5,177C 353.141,175.871 354.141,174.371 354.5,172.5 Z"/></g>
<g><path style="opacity:1" fill="#183d2e" d="M 400.5,125.5 C 401.332,142.995 401.832,160.662 402,178.5C 402.733,187.565 403.9,196.565 405.5,205.5C 402.679,201.402 401.013,202.069 400.5,207.5C 397.292,196.861 395.625,185.861 395.5,174.5C 396.33,163.674 396.83,152.674 397,141.5C 397.536,153.856 398.37,166.189 399.5,178.5C 400.5,160.846 400.833,143.179 400.5,125.5 Z"/></g>
<g><path style="opacity:1" fill="#4e7c2c" d="M 357.5,179.5 C 357.833,179.5 358.167,179.5 358.5,179.5C 360.114,181.456 361.781,183.456 363.5,185.5C 361.833,185.5 360.167,185.5 358.5,185.5C 358.615,187.947 359.615,189.947 361.5,191.5C 360.127,191.657 358.793,191.49 357.5,191C 352.229,188.762 347.229,186.262 342.5,183.5C 348.277,184.447 353.277,183.113 357.5,179.5 Z"/></g>
<g><path style="opacity:1" fill="#447023" d="M 183.5,174.5 C 188.65,173.349 193.984,173.183 199.5,174C 206.52,175.226 213.52,176.559 220.5,178C 228.018,179.766 235.018,182.599 241.5,186.5C 241.5,187.5 241.5,188.5 241.5,189.5C 242.552,189.351 243.552,189.517 244.5,190C 247.658,195.722 250.992,196.222 254.5,191.5C 256.296,190.207 257.963,188.707 259.5,187C 273.14,179.286 287.806,174.952 303.5,174C 308.684,173.184 313.684,173.35 318.5,174.5C 311.452,174.852 304.786,176.685 298.5,180C 286.388,180.056 275.055,183.056 264.5,189C 260.638,193.362 256.304,197.195 251.5,200.5C 247.482,197.476 243.482,194.476 239.5,191.5C 239.047,190.542 238.381,189.708 237.5,189C 225.594,182.81 212.928,179.477 199.5,179C 194.757,175.466 189.424,173.966 183.5,174.5 Z"/></g>
<g><path style="opacity:1" fill="#093124" d="M 239.5,191.5 C 240.038,193.117 240.371,194.784 240.5,196.5C 241.552,196.351 242.552,196.517 243.5,197C 246.954,201.391 251.287,202.558 256.5,200.5C 257.677,197.962 259.344,195.629 261.5,193.5C 265.297,191.533 268.964,189.366 272.5,187C 276.85,186.152 281.184,185.319 285.5,184.5C 291.461,185.559 297.461,186.226 303.5,186.5C 303.5,185.5 303.5,184.5 303.5,183.5C 301.396,183.799 299.396,183.466 297.5,182.5C 302.521,180.915 307.021,181.915 311,185.5C 311.333,185.167 311.667,184.833 312,184.5C 312.249,185.624 312.749,186.624 313.5,187.5C 316.103,186.438 318.77,186.272 321.5,187C 322.684,188.145 322.684,189.312 321.5,190.5C 304.521,185.767 287.854,186.6 271.5,193C 269.099,195.062 266.433,196.729 263.5,198C 259.282,202.712 255.282,207.546 251.5,212.5C 247.528,207.425 243.194,202.592 238.5,198C 219.513,186.587 199.513,184.42 178.5,191.5C 170.857,194.655 163.523,198.322 156.5,202.5C 154.833,202.5 153.167,202.5 151.5,202.5C 151.649,203.552 151.483,204.552 151,205.5C 149.374,205.146 147.541,205.146 145.5,205.5C 145.281,204.325 145.614,203.325 146.5,202.5C 149.181,202.068 151.181,200.734 152.5,198.5C 160.866,193.025 169.866,188.525 179.5,185C 187.161,183.933 194.661,182.433 202,180.5C 210.129,180.895 217.962,182.395 225.5,185C 230.068,187.452 234.735,189.618 239.5,191.5 Z"/></g>
<g><path style="opacity:1" fill="#4c7829" d="M 144.5,179.5 C 148.535,182.735 153.201,184.402 158.5,184.5C 153.015,187.069 147.349,189.403 141.5,191.5C 144.472,187.771 143.472,185.771 138.5,185.5C 140.5,183.5 142.5,181.5 144.5,179.5 Z"/></g>
<g><path style="opacity:1" fill="#fbfdfc" d="M 321.5,190.5 C 325.993,192.579 330.326,194.912 334.5,197.5C 336.388,199.754 338.555,201.754 341,203.5C 341.784,206.76 341.617,209.927 340.5,213C 341.56,215.737 342.394,218.57 343,221.5C 343.683,230.866 343.349,240.199 342,249.5C 341.474,252.883 340.141,255.883 338,258.5C 332.198,263.3 326.698,268.467 321.5,274C 314.253,278.252 306.419,280.752 298,281.5C 296.527,281.097 295.194,280.43 294,279.5C 290.592,281.223 288.259,280.223 287,276.5C 285.989,277.337 284.822,277.67 283.5,277.5C 284.261,283.326 287.594,287.66 293.5,290.5C 289.878,292.787 286.545,295.453 283.5,298.5C 282.167,299.5 280.833,300.5 279.5,301.5C 275.195,302.955 271.862,305.788 269.5,310C 267.5,311.333 265.5,312.667 263.5,314C 260.745,318.429 257.579,322.596 254,326.5C 253.586,326.043 253.086,325.709 252.5,325.5C 251.813,327.274 250.98,328.941 250,330.5C 248.487,326.319 246.154,322.652 243,319.5C 241.991,317.975 241.491,316.308 241.5,314.5C 237.925,311.954 233.925,310.287 229.5,309.5C 226.906,305.235 223.572,301.569 219.5,298.5C 216.167,295.833 212.833,293.167 209.5,290.5C 214.202,288.129 217.536,284.462 219.5,279.5C 218.575,278.438 217.575,278.438 216.5,279.5C 213.568,279.284 210.902,279.951 208.5,281.5C 200.39,279.449 191.724,276.949 182.5,274C 169.783,266.642 162.283,255.808 160,241.5C 159.667,237.5 159.333,233.5 159,229.5C 158.5,229 158,228.5 157.5,228C 159.683,223.128 161.683,218.128 163.5,213C 162.487,210.645 161.487,208.311 160.5,206C 163.037,203.454 166.037,201.788 169.5,201C 171.36,197.133 174.36,194.8 178.5,194C 177.402,193.23 177.402,192.397 178.5,191.5C 199.513,184.42 219.513,186.587 238.5,198C 243.194,202.592 247.528,207.425 251.5,212.5C 255.282,207.546 259.282,202.712 263.5,198C 266.433,196.729 269.099,195.062 271.5,193C 287.854,186.6 304.521,185.767 321.5,190.5 Z"/></g>
<g><path style="opacity:1" fill="#f1f8f6" d="M 98.5,189.5 C 100.806,189.993 103.139,190.326 105.5,190.5C 103.111,202.172 100.611,213.839 98,225.5C 97.2716,228.23 97.4383,230.897 98.5,233.5C 97.1667,235.167 95.8333,236.833 94.5,238.5C 93.4938,232.824 91.1605,232.157 87.5,236.5C 87.1667,235.333 86.8333,234.167 86.5,233C 90.805,218.585 94.805,204.085 98.5,189.5 Z"/></g>
<g><path style="opacity:1" fill="#527d31" d="M 164.5,189.5 C 161.358,191.58 158.358,193.914 155.5,196.5C 155.439,194.408 154.439,192.908 152.5,192C 156.378,190.53 160.378,189.697 164.5,189.5 Z"/></g>
<g><path style="opacity:1" fill="#507b21" d="M 256.5,171.5 C 258.089,174.08 260.422,175.413 263.5,175.5C 261.46,177.195 259.626,179.195 258,181.5C 257.26,182.749 257.427,183.749 258.5,184.5C 256.902,186.698 255.569,189.031 254.5,191.5C 250.992,196.222 247.658,195.722 244.5,190C 243.552,189.517 242.552,189.351 241.5,189.5C 241.5,188.5 241.5,187.5 241.5,186.5C 248.378,192.078 249.045,191.411 243.5,184.5C 244.497,184.53 245.164,184.03 245.5,183C 244.35,181.019 243.016,179.186 241.5,177.5C 246.433,179.575 248.433,177.908 247.5,172.5C 248.815,173.476 250.148,174.476 251.5,175.5C 253.186,174.143 254.852,172.81 256.5,171.5 Z"/></g>
<g><path style="opacity:1" fill="#083412" d="M 312.5,181.5 C 321.37,183.568 330.037,186.235 338.5,189.5C 339.891,191.89 341.891,193.557 344.5,194.5C 349.516,198.341 355.183,201.175 361.5,203C 365.858,204.075 369.858,203.408 373.5,201C 368.884,198.536 364.884,195.369 361.5,191.5C 359.615,189.947 358.615,187.947 358.5,185.5C 360.167,185.5 361.833,185.5 363.5,185.5C 360.496,189.147 361.496,190.814 366.5,190.5C 366.5,191.5 366.5,192.5 366.5,193.5C 367.5,193.5 368.5,193.5 369.5,193.5C 369.33,194.822 369.663,195.989 370.5,197C 372.169,198.669 374.169,199.502 376.5,199.5C 375.711,202.434 373.711,204.268 370.5,205C 365.699,205.65 361.032,205.15 356.5,203.5C 354.083,203.489 352.417,204.489 351.5,206.5C 350.833,206.5 350.5,206.167 350.5,205.5C 349.047,204.175 349.381,203.342 351.5,203C 347.511,199.002 342.844,196.002 337.5,194C 336.929,192.795 336.262,191.628 335.5,190.5C 330.664,188.964 325.998,187.131 321.5,185C 318.833,184.667 316.167,184.333 313.5,184C 312.748,183.329 312.414,182.496 312.5,181.5 Z"/></g>
<g><path style="opacity:1" fill="#52782b" d="M 338.5,189.5 C 342.553,190.013 346.553,190.846 350.5,192C 348.389,192.845 346.389,193.678 344.5,194.5C 341.891,193.557 339.891,191.89 338.5,189.5 Z"/></g>
<g><path style="opacity:1" fill="#0e3620" d="M 138.5,185.5 C 143.472,185.771 144.472,187.771 141.5,191.5C 138.28,194.883 134.614,197.716 130.5,200C 129.167,200.667 129.167,201.333 130.5,202C 138.276,203.341 145.609,202.174 152.5,198.5C 151.181,200.734 149.181,202.068 146.5,202.5C 145.614,203.325 145.281,204.325 145.5,205.5C 147.541,205.146 149.374,205.146 151,205.5C 151.483,204.552 151.649,203.552 151.5,202.5C 153.167,202.5 154.833,202.5 156.5,202.5C 153.968,205.229 150.968,207.229 147.5,208.5C 134.501,213.536 123.834,210.536 115.5,199.5C 124.797,198.521 131.797,194.021 136.5,186C 137.094,185.536 137.761,185.369 138.5,185.5 Z"/></g>
<g><path style="opacity:1" fill="#123527" d="M 363.5,185.5 C 367.262,189.083 371.262,192.583 375.5,196C 379.42,197.313 383.42,198.313 387.5,199C 384.141,204.852 379.141,208.518 372.5,210C 366.069,210.504 359.735,210.171 353.5,209C 357,211.334 360,214.168 362.5,217.5C 360.215,216.454 357.882,216.454 355.5,217.5C 353.399,214.203 352.065,210.537 351.5,206.5C 352.417,204.489 354.083,203.489 356.5,203.5C 361.032,205.15 365.699,205.65 370.5,205C 373.711,204.268 375.711,202.434 376.5,199.5C 374.169,199.502 372.169,198.669 370.5,197C 369.663,195.989 369.33,194.822 369.5,193.5C 368.5,193.5 367.5,193.5 366.5,193.5C 366.5,192.5 366.5,191.5 366.5,190.5C 361.496,190.814 360.496,189.147 363.5,185.5 Z"/></g>
<g><path style="opacity:1" fill="#092f22" d="M 290.5,206.5 C 293.518,206.335 296.518,206.502 299.5,207C 304.068,209.063 308.734,210.897 313.5,212.5C 317.37,211.898 320.703,210.232 323.5,207.5C 323.322,213.052 320.322,216.718 314.5,218.5C 318.967,221.136 323.467,221.136 328,218.5C 328.167,218.833 328.333,219.167 328.5,219.5C 325.274,223.403 321.274,226.07 316.5,227.5C 316.236,242.267 308.736,250.601 294,252.5C 277.971,249.461 270.971,239.795 273,223.5C 276.084,214.915 281.917,209.248 290.5,206.5 Z"/></g>
<g><path style="opacity:1" fill="#042e20" d="M 177.5,206.5 C 180.82,209.811 184.82,211.811 189.5,212.5C 194.403,210.437 199.403,208.604 204.5,207C 216.019,206.014 224.186,210.848 229,221.5C 232.518,236.635 227.018,246.802 212.5,252C 201.118,253.391 192.952,248.891 188,238.5C 186.763,234.94 186.263,231.273 186.5,227.5C 180.636,226.775 176.802,223.775 175,218.5C 179.454,220.897 183.954,221.064 188.5,219C 182.856,216.526 179.189,212.359 177.5,206.5 Z"/></g>
<g><path style="opacity:1" fill="#f3f9f7" d="M 292.5,211.5 C 304.233,211.738 311.233,217.572 313.5,229C 312.816,235.062 309.983,236.562 305,233.5C 305.022,229.048 303.522,225.214 300.5,222C 296.93,220.5 293.43,219 290,217.5C 289.458,214.918 290.292,212.918 292.5,211.5 Z"/></g>
<g><path style="opacity:1" fill="#224b23" d="M 405.5,207.5 C 411.973,211.303 416.639,216.636 419.5,223.5C 418.265,223.721 417.265,224.388 416.5,225.5C 415.459,223.009 414.626,223.009 414,225.5C 413.009,224.061 411.676,223.061 410,222.5C 409.585,220.709 408.585,219.376 407,218.5C 406.452,214.83 405.952,211.163 405.5,207.5 Z"/></g>
<g><path style="opacity:1" fill="#8db366" d="M 147.5,218.5 C 147.025,221.313 148.025,223.313 150.5,224.5C 149.397,228.497 147.731,232.164 145.5,235.5C 148.1,224.898 145.6,223.898 138,232.5C 135.059,236.381 133.225,240.714 132.5,245.5C 132.724,247.455 133.391,249.121 134.5,250.5C 133.206,251.29 132.039,252.29 131,253.5C 130.503,250.854 130.336,248.187 130.5,245.5C 132.883,234.394 138.55,225.394 147.5,218.5 Z"/></g>
<g><path style="opacity:1" fill="#e2f0ee" d="M 193.5,228.5 C 198.805,229.241 200.139,231.741 197.5,236C 191.403,236.147 190.07,233.647 193.5,228.5 Z"/></g>
<g><path style="opacity:1" fill="#0a3611" d="M 150.5,224.5 C 152.308,225.918 152.975,227.918 152.5,230.5C 150.863,232.316 149.363,234.316 148,236.5C 147.5,243.158 147.334,249.825 147.5,256.5C 145.943,250.739 145.276,244.739 145.5,238.5C 145.5,237.5 145.5,236.5 145.5,235.5C 147.731,232.164 149.397,228.497 150.5,224.5 Z"/></g>
<g><path style="opacity:1" fill="#0a3721" d="M 405.5,205.5 C 405.5,206.167 405.5,206.833 405.5,207.5C 405.952,211.163 406.452,214.83 407,218.5C 408.585,219.376 409.585,220.709 410,222.5C 411.676,223.061 413.009,224.061 414,225.5C 414.626,223.009 415.459,223.009 416.5,225.5C 417.265,224.388 418.265,223.721 419.5,223.5C 424.026,234.897 422.86,245.897 416,256.5C 414.184,260.663 411.351,261.497 407.5,259C 395.593,249.392 390.927,237.225 393.5,222.5C 393.334,226.846 393.501,231.179 394,235.5C 395.316,238.028 396.483,238.028 397.5,235.5C 398.665,236.491 399.832,237.491 401,238.5C 402.333,237.833 403.667,237.167 405,236.5C 406.101,237.291 406.934,237.291 407.5,236.5C 405.851,235.852 404.518,234.852 403.5,233.5C 404.677,231.137 405.343,228.637 405.5,226C 404.34,219.833 402.673,214 400.5,208.5C 400.5,208.167 400.5,207.833 400.5,207.5C 401.013,202.069 402.679,201.402 405.5,205.5 Z"/></g>
<g><path style="opacity:1" fill="#124021" d="M 400.5,208.5 C 402.673,214 404.34,219.833 405.5,226C 405.343,228.637 404.677,231.137 403.5,233.5C 404.518,234.852 405.851,235.852 407.5,236.5C 406.934,237.291 406.101,237.291 405,236.5C 403.667,237.167 402.333,237.833 401,238.5C 399.832,237.491 398.665,236.491 397.5,235.5C 396.483,238.028 395.316,238.028 394,235.5C 393.501,231.179 393.334,226.846 393.5,222.5C 394.789,217.255 397.122,212.588 400.5,208.5 Z"/></g>
<g><path style="opacity:1" fill="#ecf2e5" d="M 334.5,197.5 C 339.562,200.525 344.895,203.191 350.5,205.5C 350.5,206.167 350.833,206.5 351.5,206.5C 352.065,210.537 353.399,214.203 355.5,217.5C 355.5,218.167 355.5,218.833 355.5,219.5C 355.33,222.204 353.997,223.871 351.5,224.5C 350.35,223.15 349.683,223.316 349.5,225C 353.445,245.571 348.112,263.237 333.5,278C 316.597,289.477 299.93,289.311 283.5,277.5C 284.822,277.67 285.989,277.337 287,276.5C 288.259,280.223 290.592,281.223 294,279.5C 295.194,280.43 296.527,281.097 298,281.5C 306.419,280.752 314.253,278.252 321.5,274C 326.698,268.467 332.198,263.3 338,258.5C 340.141,255.883 341.474,252.883 342,249.5C 343.349,240.199 343.683,230.866 343,221.5C 342.394,218.57 341.56,215.737 340.5,213C 341.617,209.927 341.784,206.76 341,203.5C 338.555,201.754 336.388,199.754 334.5,197.5 Z"/></g>
<g><path style="opacity:1" fill="#91b561" d="M 355.5,219.5 C 367.491,228.793 372.824,240.793 371.5,255.5C 366.827,249.828 362.16,244.161 357.5,238.5C 357.672,237.508 357.338,236.842 356.5,236.5C 355.383,232.266 353.716,228.266 351.5,224.5C 353.997,223.871 355.33,222.204 355.5,219.5 Z"/></g>
<g><path style="opacity:1" fill="#0b351e" d="M 147.5,218.5 C 138.55,225.394 132.883,234.394 130.5,245.5C 129.357,248.976 129.19,252.642 130,256.5C 133.7,253.366 137.867,252.366 142.5,253.5C 142.137,254.183 141.804,254.85 141.5,255.5C 137.336,258.493 134.669,262.493 133.5,267.5C 132.207,268.842 131.374,270.509 131,272.5C 130.801,280.245 130.301,287.912 129.5,295.5C 129.158,296.338 128.492,296.672 127.5,296.5C 128.397,285.239 129.063,274.072 129.5,263C 128.897,260.929 127.564,259.762 125.5,259.5C 121.701,251.996 121.534,244.329 125,236.5C 130.532,225.395 138.365,216.395 148.5,209.5C 149.363,208.537 150.03,208.537 150.5,209.5C 149.649,212.578 148.649,215.578 147.5,218.5 Z"/></g>
<g><path style="opacity:1" fill="#91b956" d="M 145.5,235.5 C 145.5,236.5 145.5,237.5 145.5,238.5C 141.833,242.5 138.167,246.5 134.5,250.5C 133.391,249.121 132.724,247.455 132.5,245.5C 133.225,240.714 135.059,236.381 138,232.5C 145.6,223.898 148.1,224.898 145.5,235.5 Z"/></g>
<g><path style="opacity:1" fill="#d3ebe3" d="M 89.5,241.5 C 92.0541,243.83 91.8874,246.163 89,248.5C 86.9885,245.9 87.1552,243.566 89.5,241.5 Z"/></g>
<g><path style="opacity:1" fill="#072f21" d="M 250.5,242.5 C 253.163,244.089 255.163,246.422 256.5,249.5C 254.803,250.364 253.637,251.697 253,253.5C 252.333,258.167 252.333,262.833 253,267.5C 258.941,252.683 262.441,253.516 263.5,270C 262.422,280.531 258.422,289.698 251.5,297.5C 235.86,279.521 235.526,261.188 250.5,242.5 Z"/></g>
<g><path style="opacity:1" fill="#ecf4e6" d="M 178.5,191.5 C 177.402,192.397 177.402,193.23 178.5,194C 174.36,194.8 171.36,197.133 169.5,201C 166.037,201.788 163.037,203.454 160.5,206C 161.487,208.311 162.487,210.645 163.5,213C 161.683,218.128 159.683,223.128 157.5,228C 158,228.5 158.5,229 159,229.5C 159.333,233.5 159.667,237.5 160,241.5C 162.283,255.808 169.783,266.642 182.5,274C 191.724,276.949 200.39,279.449 208.5,281.5C 210.902,279.951 213.568,279.284 216.5,279.5C 199.478,289.678 183.145,288.678 167.5,276.5C 167.167,275.5 166.5,274.833 165.5,274.5C 154.993,261.833 150.66,247.166 152.5,230.5C 152.975,227.918 152.308,225.918 150.5,224.5C 148.025,223.313 147.025,221.313 147.5,218.5C 148.649,215.578 149.649,212.578 150.5,209.5C 150.03,208.537 149.363,208.537 148.5,209.5C 148.5,208.833 148.167,208.5 147.5,208.5C 150.968,207.229 153.968,205.229 156.5,202.5C 163.523,198.322 170.857,194.655 178.5,191.5 Z"/></g>
<g><path style="opacity:1" fill="#093223" d="M 152.5,230.5 C 150.66,247.166 154.993,261.833 165.5,274.5C 164.603,275.598 163.77,275.598 163,274.5C 162.51,275.793 162.343,277.127 162.5,278.5C 161.5,278.5 160.5,278.5 159.5,278.5C 159.34,276.801 159.506,275.134 160,273.5C 160.914,274.654 161.747,274.487 162.5,273C 160.68,272.021 159.513,270.521 159,268.5C 157.482,268.057 156.315,268.724 155.5,270.5C 155.167,270.167 154.833,269.833 154.5,269.5C 152.017,265.115 149.683,260.782 147.5,256.5C 147.334,249.825 147.5,243.158 148,236.5C 149.363,234.316 150.863,232.316 152.5,230.5 Z"/></g>
<g><path style="opacity:1" fill="#406d25" d="M 357.5,238.5 C 362.16,244.161 366.827,249.828 371.5,255.5C 367.629,253.525 363.629,252.859 359.5,253.5C 359.863,254.183 360.196,254.85 360.5,255.5C 360.5,255.833 360.5,256.167 360.5,256.5C 359.624,256.369 358.957,256.702 358.5,257.5C 356.837,260.656 355.67,263.989 355,267.5C 352.167,269.97 349.667,272.803 347.5,276C 346.906,276.464 346.239,276.631 345.5,276.5C 353.486,265.171 357.486,252.504 357.5,238.5 Z"/></g>
<g><path style="opacity:1" fill="#063317" d="M 362.5,217.5 C 359.729,222.904 361.395,225.071 367.5,224C 368.165,227.827 369.998,230.994 373,233.5C 373.424,239.507 373.924,245.507 374.5,251.5C 374.61,255.335 373.61,258.835 371.5,262C 372.887,267.13 373.554,272.63 373.5,278.5C 373.498,281.686 373.165,284.686 372.5,287.5C 373.794,274.7 369.794,264.033 360.5,255.5C 360.196,254.85 359.863,254.183 359.5,253.5C 363.629,252.859 367.629,253.525 371.5,255.5C 372.824,240.793 367.491,228.793 355.5,219.5C 355.5,218.833 355.5,218.167 355.5,217.5C 357.882,216.454 360.215,216.454 362.5,217.5 Z"/></g>
<g><path style="opacity:1" fill="#4b7824" d="M 145.5,238.5 C 145.276,244.739 145.943,250.739 147.5,256.5C 153.832,278.991 168.666,291.658 192,294.5C 194.551,294.375 197.051,294.042 199.5,293.5C 200.882,296.394 202.882,298.894 205.5,301C 188.814,302.498 174.147,297.832 161.5,287C 157.142,285.223 152.808,283.39 148.5,281.5C 147.808,282.025 147.308,282.692 147,283.5C 146.722,282.584 146.222,281.918 145.5,281.5C 144.817,279.824 143.483,279.157 141.5,279.5C 140.374,271.644 140.374,263.644 141.5,255.5C 141.804,254.85 142.137,254.183 142.5,253.5C 137.867,252.366 133.7,253.366 130,256.5C 129.19,252.642 129.357,248.976 130.5,245.5C 130.336,248.187 130.503,250.854 131,253.5C 132.039,252.29 133.206,251.29 134.5,250.5C 138.167,246.5 141.833,242.5 145.5,238.5 Z"/></g>
<g><path style="opacity:1" fill="#083220" d="M 351.5,224.5 C 353.716,228.266 355.383,232.266 356.5,236.5C 357.688,249.434 354.022,260.6 345.5,270C 346.337,271.011 346.67,272.178 346.5,273.5C 345.5,273.5 344.5,273.5 343.5,273.5C 343.509,275.308 343.009,276.975 342,278.5C 339.179,280.322 336.679,282.489 334.5,285C 329.439,287.53 324.439,290.03 319.5,292.5C 314.447,294.26 309.114,294.927 303.5,294.5C 300.169,293.385 296.836,292.051 293.5,290.5C 287.594,287.66 284.261,283.326 283.5,277.5C 299.93,289.311 316.597,289.477 333.5,278C 348.112,263.237 353.445,245.571 349.5,225C 349.683,223.316 350.35,223.15 351.5,224.5 Z"/></g>
<g><path style="opacity:1" fill="#91b65b" d="M 141.5,255.5 C 140.374,263.644 140.374,271.644 141.5,279.5C 138.944,282.668 137.944,286.334 138.5,290.5C 137.533,289.194 136.199,288.527 134.5,288.5C 134.5,290.167 134.5,291.833 134.5,293.5C 133.5,293.5 132.5,293.5 131.5,293.5C 131.135,284.732 131.801,276.065 133.5,267.5C 134.669,262.493 137.336,258.493 141.5,255.5 Z"/></g>
<g><path style="opacity:1" fill="#558125" d="M 360.5,256.5 C 361.971,263.912 361.637,271.245 359.5,278.5C 358.791,279.404 357.791,279.737 356.5,279.5C 353.697,281.31 350.697,282.643 347.5,283.5C 347.5,285.5 347.5,287.5 347.5,289.5C 346.833,289.5 346.167,289.5 345.5,289.5C 343.579,288.637 341.579,287.971 339.5,287.5C 339.539,286.417 339.873,285.417 340.5,284.5C 344.621,283.377 346.288,280.71 345.5,276.5C 346.239,276.631 346.906,276.464 347.5,276C 349.667,272.803 352.167,269.97 355,267.5C 355.67,263.989 356.837,260.656 358.5,257.5C 358.957,256.702 359.624,256.369 360.5,256.5 Z"/></g>
<g><path style="opacity:1" fill="#91b673" d="M 133.5,267.5 C 131.801,276.065 131.135,284.732 131.5,293.5C 132.5,293.5 133.5,293.5 134.5,293.5C 134.5,291.833 134.5,290.167 134.5,288.5C 136.199,288.527 137.533,289.194 138.5,290.5C 138.5,290.833 138.5,291.167 138.5,291.5C 136.129,294.184 133.129,295.518 129.5,295.5C 130.301,287.912 130.801,280.245 131,272.5C 131.374,270.509 132.207,268.842 133.5,267.5 Z"/></g>
<g><path style="opacity:1" fill="#91b55e" d="M 360.5,255.5 C 369.794,264.033 373.794,274.7 372.5,287.5C 371.47,290.229 371.47,292.896 372.5,295.5C 371.417,295.539 370.417,295.873 369.5,296.5C 367.736,294.722 365.736,293.389 363.5,292.5C 363.5,291.167 363.5,289.833 363.5,288.5C 364.25,284.225 362.917,280.891 359.5,278.5C 361.637,271.245 361.971,263.912 360.5,256.5C 360.5,256.167 360.5,255.833 360.5,255.5 Z"/></g>
<g><path style="opacity:1" fill="#063612" d="M 356.5,236.5 C 357.338,236.842 357.672,237.508 357.5,238.5C 357.486,252.504 353.486,265.171 345.5,276.5C 338.81,284.854 330.143,290.188 319.5,292.5C 324.439,290.03 329.439,287.53 334.5,285C 336.679,282.489 339.179,280.322 342,278.5C 343.009,276.975 343.509,275.308 343.5,273.5C 344.5,273.5 345.5,273.5 346.5,273.5C 346.67,272.178 346.337,271.011 345.5,270C 354.022,260.6 357.688,249.434 356.5,236.5 Z"/></g>
<g><path style="opacity:1" fill="#063317" d="M 147.5,256.5 C 149.683,260.782 152.017,265.115 154.5,269.5C 154.833,269.833 155.167,270.167 155.5,270.5C 156.315,268.724 157.482,268.057 159,268.5C 159.513,270.521 160.68,272.021 162.5,273C 161.747,274.487 160.914,274.654 160,273.5C 159.506,275.134 159.34,276.801 159.5,278.5C 160.5,278.5 161.5,278.5 162.5,278.5C 162.343,277.127 162.51,275.793 163,274.5C 163.77,275.598 164.603,275.598 165.5,274.5C 166.5,274.833 167.167,275.5 167.5,276.5C 165.615,278.053 164.615,280.053 164.5,282.5C 166.467,282.739 168.301,282.406 170,281.5C 171.976,282.543 172.476,283.877 171.5,285.5C 183.061,292.929 195.228,294.262 208,289.5C 208.765,289.57 209.265,289.903 209.5,290.5C 206.275,291.807 202.941,292.807 199.5,293.5C 197.051,294.042 194.551,294.375 192,294.5C 168.666,291.658 153.832,278.991 147.5,256.5 Z"/></g>
<g><path style="opacity:1" fill="#0e3a19" d="M 141.5,279.5 C 143.483,279.157 144.817,279.824 145.5,281.5C 145.334,286.511 145.501,291.511 146,296.5C 146.479,299.624 147.646,302.457 149.5,305C 148.944,305.383 148.611,305.883 148.5,306.5C 148.167,306.5 147.833,306.5 147.5,306.5C 146.439,304.468 144.772,303.134 142.5,302.5C 143.09,301.201 144.09,300.368 145.5,300C 144.751,298.266 144.251,296.433 144,294.5C 143.586,294.957 143.086,295.291 142.5,295.5C 141.833,292.833 141.167,290.167 140.5,287.5C 139.526,289.743 139.192,292.076 139.5,294.5C 138.596,293.791 138.263,292.791 138.5,291.5C 138.5,291.167 138.5,290.833 138.5,290.5C 137.944,286.334 138.944,282.668 141.5,279.5 Z"/></g>
<g><path style="opacity:1" fill="#093021" d="M 167.5,276.5 C 183.145,288.678 199.478,289.678 216.5,279.5C 217.575,278.438 218.575,278.438 219.5,279.5C 217.536,284.462 214.202,288.129 209.5,290.5C 209.265,289.903 208.765,289.57 208,289.5C 195.228,294.262 183.061,292.929 171.5,285.5C 172.476,283.877 171.976,282.543 170,281.5C 168.301,282.406 166.467,282.739 164.5,282.5C 164.615,280.053 165.615,278.053 167.5,276.5 Z"/></g>
<g><path style="opacity:1" fill="#0c3324" d="M 125.5,259.5 C 127.564,259.762 128.897,260.929 129.5,263C 129.063,274.072 128.397,285.239 127.5,296.5C 124.94,299.537 121.607,301.371 117.5,302C 112.845,302.499 108.179,302.666 103.5,302.5C 104.311,289.191 110.811,279.858 123,274.5C 123.968,270.118 125.468,265.951 127.5,262C 126.619,261.292 125.953,260.458 125.5,259.5 Z M 122.5,283.5 C 124.028,283.517 124.528,284.184 124,285.5C 122.292,287.543 120.292,289.21 118,290.5C 118.037,287.284 119.537,284.951 122.5,283.5 Z"/></g>
<g><path style="opacity:1" fill="#0f380f" d="M 359.5,278.5 C 362.917,280.891 364.25,284.225 363.5,288.5C 362.164,286.2 360.831,283.867 359.5,281.5C 358.671,286.467 358.171,291.467 358,296.5C 357.264,300.07 356.097,303.404 354.5,306.5C 354.167,306.5 353.833,306.5 353.5,306.5C 354.556,302.832 355.722,299.165 357,295.5C 357.733,290.115 357.567,284.782 356.5,279.5C 357.791,279.737 358.791,279.404 359.5,278.5 Z"/></g>
<g><path style="opacity:1" fill="#8db257" d="M 145.5,281.5 C 146.222,281.918 146.722,282.584 147,283.5C 147.308,282.692 147.808,282.025 148.5,281.5C 152.808,283.39 157.142,285.223 161.5,287C 174.147,297.832 188.814,302.498 205.5,301C 202.882,298.894 200.882,296.394 199.5,293.5C 202.941,292.807 206.275,291.807 209.5,290.5C 212.833,293.167 216.167,295.833 219.5,298.5C 219.062,298.435 218.728,298.601 218.5,299C 221.438,301.898 223.271,305.398 224,309.5C 224.839,315.941 226.006,322.274 227.5,328.5C 224.013,327.555 222.68,325.222 223.5,321.5C 221.436,321.313 219.436,320.813 217.5,320C 212.881,317.073 208.214,314.24 203.5,311.5C 202.226,313.85 200.893,313.683 199.5,311C 196.57,310.394 193.737,309.56 191,308.5C 190.667,308.833 190.333,309.167 190,309.5C 189.517,308.552 189.351,307.552 189.5,306.5C 188.5,306.5 187.5,306.5 186.5,306.5C 186.5,307.833 186.5,309.167 186.5,310.5C 185.609,309.89 184.609,309.557 183.5,309.5C 182.522,306.208 181.856,306.041 181.5,309C 181.881,316.604 185.215,322.437 191.5,326.5C 191.833,327.167 192.167,327.833 192.5,328.5C 191,329.625 189.667,330.959 188.5,332.5C 175.736,327.699 169.736,318.366 170.5,304.5C 168.217,304.392 166.217,303.559 164.5,302C 160.919,298.252 157.919,294.085 155.5,289.5C 154.255,293.214 154.421,296.88 156,300.5C 158.001,303.331 160.167,305.997 162.5,308.5C 161.055,310.571 160.055,312.904 159.5,315.5C 156.712,312.964 153.712,310.631 150.5,308.5C 150.5,307.167 149.833,306.5 148.5,306.5C 148.611,305.883 148.944,305.383 149.5,305C 147.646,302.457 146.479,299.624 146,296.5C 145.501,291.511 145.334,286.511 145.5,281.5 Z"/></g>
<g><path style="opacity:1" fill="#437120" d="M 345.5,276.5 C 346.288,280.71 344.621,283.377 340.5,284.5C 339.873,285.417 339.539,286.417 339.5,287.5C 327.849,298.05 314.182,302.383 298.5,300.5C 299.763,298.971 300.763,297.305 301.5,295.5C 302.167,295.167 302.833,294.833 303.5,294.5C 309.114,294.927 314.447,294.26 319.5,292.5C 330.143,290.188 338.81,284.854 345.5,276.5 Z"/></g>
<g><path style="opacity:1" fill="#8bb059" d="M 356.5,279.5 C 357.567,284.782 357.733,290.115 357,295.5C 355.722,299.165 354.556,302.832 353.5,306.5C 352.662,306.842 352.328,307.508 352.5,308.5C 349.732,310.087 347.065,311.92 344.5,314C 343.748,314.671 343.414,315.504 343.5,316.5C 342.657,314.513 341.99,312.346 341.5,310C 341.164,308.97 340.497,308.47 339.5,308.5C 341.65,306.24 343.817,303.907 346,301.5C 347.266,297.605 347.766,293.605 347.5,289.5C 347.5,287.5 347.5,285.5 347.5,283.5C 350.697,282.643 353.697,281.31 356.5,279.5 Z"/></g>
<g><path style="opacity:1" fill="#0a3223" d="M 362.5,217.5 C 372.571,225.289 378.571,235.623 380.5,248.5C 379.713,253.364 378.047,257.864 375.5,262C 377.074,266.056 378.241,270.222 379,274.5C 390.947,279.966 397.781,289.299 399.5,302.5C 389.333,304.24 380.333,301.907 372.5,295.5C 371.47,292.896 371.47,290.229 372.5,287.5C 373.165,284.686 373.498,281.686 373.5,278.5C 373.554,272.63 372.887,267.13 371.5,262C 373.61,258.835 374.61,255.335 374.5,251.5C 373.924,245.507 373.424,239.507 373,233.5C 369.998,230.994 368.165,227.827 367.5,224C 361.395,225.071 359.729,222.904 362.5,217.5 Z M 377.5,283.5 C 380.624,283.943 382.957,285.61 384.5,288.5C 380.935,288.98 378.602,287.314 377.5,283.5 Z"/></g>
<g><path style="opacity:1" fill="#8bb150" d="M 339.5,287.5 C 341.579,287.971 343.579,288.637 345.5,289.5C 344.101,295.662 340.767,300.329 335.5,303.5C 333.833,303.5 332.167,303.5 330.5,303.5C 331.102,309.024 330.102,314.19 327.5,319C 326.062,319.219 324.729,319.719 323.5,320.5C 324.872,322.62 324.205,323.62 321.5,323.5C 321.5,324.833 321.5,326.167 321.5,327.5C 318.951,327.387 316.618,328.054 314.5,329.5C 314.167,329 313.833,328.5 313.5,328C 316.012,324.985 318.345,321.818 320.5,318.5C 321.701,314.492 321.701,310.492 320.5,306.5C 319.893,306.624 319.56,306.957 319.5,307.5C 319.267,309.062 318.6,310.395 317.5,311.5C 316.833,311.5 316.167,311.5 315.5,311.5C 315.539,310.417 315.873,309.417 316.5,308.5C 315.302,308.06 314.135,307.727 313,307.5C 307.793,309.664 302.293,311.164 296.5,312C 293.043,314.825 289.876,317.991 287,321.5C 286.667,321.167 286.333,320.833 286,320.5C 283.694,321.73 281.527,323.063 279.5,324.5C 279.588,319.464 280.088,314.464 281,309.5C 282.773,305.924 284.439,302.258 286,298.5C 286.333,298.167 286.667,297.833 287,297.5C 289.513,301.212 293.013,302.378 297.5,301C 294.349,299.902 291.349,298.402 288.5,296.5C 292.874,296.087 297.207,295.754 301.5,295.5C 300.763,297.305 299.763,298.971 298.5,300.5C 314.182,302.383 327.849,298.05 339.5,287.5 Z"/></g>
<g><path style="opacity:1" fill="#0f3a1d" d="M 345.5,289.5 C 346.167,289.5 346.833,289.5 347.5,289.5C 347.766,293.605 347.266,297.605 346,301.5C 343.817,303.907 341.65,306.24 339.5,308.5C 338.05,312.149 336.383,315.816 334.5,319.5C 334.863,320.183 335.196,320.85 335.5,321.5C 334.001,320.322 333.001,318.655 332.5,316.5C 330.243,321.346 327.243,325.68 323.5,329.5C 324.833,330.167 326.167,330.833 327.5,331.5C 327.167,331.833 326.833,332.167 326.5,332.5C 322.62,332.251 318.62,332.251 314.5,332.5C 326.768,327.315 332.435,317.981 331.5,304.5C 333.099,304.768 334.432,304.434 335.5,303.5C 340.767,300.329 344.101,295.662 345.5,289.5 Z"/></g>
<g><path style="opacity:1" fill="#0b351c" d="M 188.5,332.5 C 188.5,333.167 188.167,333.5 187.5,333.5C 185.058,333.354 184.391,334.187 185.5,336C 183.152,336.346 181.319,337.513 180,339.5C 180.148,338.175 179.982,337.008 179.5,336C 182.167,335.333 182.167,334.667 179.5,334C 179.833,333.667 180.167,333.333 180.5,333C 178.333,332.167 176.833,330.667 176,328.5C 175.667,328.833 175.333,329.167 175,329.5C 173.856,325.879 172.189,322.545 170,319.5C 169.617,320.056 169.117,320.389 168.5,320.5C 166.447,316.393 164.447,312.393 162.5,308.5C 160.167,305.997 158.001,303.331 156,300.5C 154.421,296.88 154.255,293.214 155.5,289.5C 157.919,294.085 160.919,298.252 164.5,302C 166.217,303.559 168.217,304.392 170.5,304.5C 169.736,318.366 175.736,327.699 188.5,332.5 Z"/></g>
<g><path style="opacity:1" fill="#537f34" d="M 183.5,309.5 C 184.609,309.557 185.609,309.89 186.5,310.5C 188.749,315.121 192.415,317.455 197.5,317.5C 196.193,318.802 196.193,320.135 197.5,321.5C 201.372,325.239 206.038,327.239 211.5,327.5C 211.5,328.5 211.5,329.5 211.5,330.5C 214.959,331.436 217.793,333.436 220,336.5C 222.634,341.147 225.301,345.813 228,350.5C 229.562,346.986 230.395,343.319 230.5,339.5C 231.167,339.5 231.5,339.167 231.5,338.5C 231.833,338.5 232.167,338.5 232.5,338.5C 231.904,343.893 230.238,348.893 227.5,353.5C 226.525,350.848 225.192,348.514 223.5,346.5C 220.544,342.121 217.211,337.954 213.5,334C 206.833,329.667 200.167,325.333 193.5,321C 189.584,317.59 186.251,313.757 183.5,309.5 Z"/></g>
<g><path style="opacity:1" fill="#093513" d="M 319.5,307.5 C 321.032,316.437 317.698,323.104 309.5,327.5C 310.028,326.153 310.195,324.819 310,323.5C 302.695,327.419 295.528,331.419 288.5,335.5C 293.941,330.392 299.941,326.059 306.5,322.5C 310.446,319.221 314.112,315.554 317.5,311.5C 318.6,310.395 319.267,309.062 319.5,307.5 Z"/></g>
<g><path style="opacity:1" fill="#083121" d="M 147.5,306.5 C 141.736,310.065 136.736,314.565 132.5,320C 135.275,319.626 137.942,318.626 140.5,317C 144,314.331 147.333,311.498 150.5,308.5C 153.712,310.631 156.712,312.964 159.5,315.5C 150.683,327.997 138.516,334.664 123,335.5C 118.46,335.147 114.127,334.147 110,332.5C 114.437,317.184 123.937,306.017 138.5,299C 139.38,297.644 139.714,296.144 139.5,294.5C 139.192,292.076 139.526,289.743 140.5,287.5C 141.167,290.167 141.833,292.833 142.5,295.5C 143.086,295.291 143.586,294.957 144,294.5C 144.251,296.433 144.751,298.266 145.5,300C 144.09,300.368 143.09,301.201 142.5,302.5C 144.772,303.134 146.439,304.468 147.5,306.5 Z"/></g>
<g><path style="opacity:1" fill="#789f37" d="M 315.5,311.5 C 312.689,314.803 309.022,316.47 304.5,316.5C 304.863,318.911 303.863,320.411 301.5,321C 296.44,320.742 291.44,321.742 286.5,324C 284.379,327.123 281.879,329.957 279,332.5C 278.667,332.167 278.333,331.833 278,331.5C 275.795,332.412 273.962,333.745 272.5,335.5C 272.406,332.459 273.906,330.793 277,330.5C 277.655,328.372 278.489,326.372 279.5,324.5C 281.527,323.063 283.694,321.73 286,320.5C 286.333,320.833 286.667,321.167 287,321.5C 289.876,317.991 293.043,314.825 296.5,312C 302.293,311.164 307.793,309.664 313,307.5C 314.135,307.727 315.302,308.06 316.5,308.5C 315.873,309.417 315.539,310.417 315.5,311.5 Z"/></g>
<g><path style="opacity:1" fill="#89b265" d="M 335.5,303.5 C 334.432,304.434 333.099,304.768 331.5,304.5C 332.435,317.981 326.768,327.315 314.5,332.5C 314.5,332.833 314.5,333.167 314.5,333.5C 312.873,331.536 310.873,330.203 308.5,329.5C 308.833,328.833 309.167,328.167 309.5,327.5C 317.698,323.104 321.032,316.437 319.5,307.5C 319.56,306.957 319.893,306.624 320.5,306.5C 321.701,310.492 321.701,314.492 320.5,318.5C 318.345,321.818 316.012,324.985 313.5,328C 313.833,328.5 314.167,329 314.5,329.5C 316.618,328.054 318.951,327.387 321.5,327.5C 321.5,326.167 321.5,324.833 321.5,323.5C 324.205,323.62 324.872,322.62 323.5,320.5C 324.729,319.719 326.062,319.219 327.5,319C 330.102,314.19 331.102,309.024 330.5,303.5C 332.167,303.5 333.833,303.5 335.5,303.5 Z"/></g>
<g><path style="opacity:1" fill="#78a038" d="M 227.5,328.5 C 228.222,328.918 228.722,329.584 229,330.5C 229.383,329.944 229.883,329.611 230.5,329.5C 230.423,330.75 229.756,331.583 228.5,332C 230.219,333.87 231.219,336.037 231.5,338.5C 231.5,339.167 231.167,339.5 230.5,339.5C 230.392,337.217 229.559,335.217 228,333.5C 226.688,332.215 224.855,332.215 222.5,333.5C 222.703,331.61 222.037,330.11 220.5,329C 214.816,326.162 209.483,322.828 204.5,319C 202.26,318.023 199.927,317.523 197.5,317.5C 192.415,317.455 188.749,315.121 186.5,310.5C 186.5,309.167 186.5,307.833 186.5,306.5C 187.5,306.5 188.5,306.5 189.5,306.5C 189.351,307.552 189.517,308.552 190,309.5C 190.333,309.167 190.667,308.833 191,308.5C 193.737,309.56 196.57,310.394 199.5,311C 200.893,313.683 202.226,313.85 203.5,311.5C 208.214,314.24 212.881,317.073 217.5,320C 219.436,320.813 221.436,321.313 223.5,321.5C 222.68,325.222 224.013,327.555 227.5,328.5 Z"/></g>
<g><path style="opacity:1" fill="#0e3617" d="M 219.5,298.5 C 223.572,301.569 226.906,305.235 229.5,309.5C 229.557,310.609 229.89,311.609 230.5,312.5C 231.768,318.158 231.768,323.825 230.5,329.5C 229.883,329.611 229.383,329.944 229,330.5C 228.722,329.584 228.222,328.918 227.5,328.5C 226.006,322.274 224.839,315.941 224,309.5C 223.271,305.398 221.438,301.898 218.5,299C 218.728,298.601 219.062,298.435 219.5,298.5 Z"/></g>
<g><path style="opacity:1" fill="#0b3815" d="M 283.5,298.5 C 279.481,306.575 277.314,315.242 277,324.5C 276.028,326.305 274.861,327.972 273.5,329.5C 271.247,323.96 270.913,318.294 272.5,312.5C 274.439,308.566 276.772,304.899 279.5,301.5C 280.833,300.5 282.167,299.5 283.5,298.5 Z"/></g>
<g><path style="opacity:1" fill="#0a3122" d="M 363.5,288.5 C 363.5,289.833 363.5,291.167 363.5,292.5C 363.302,294.575 363.135,296.575 363,298.5C 378.829,305.451 388.329,317.118 391.5,333.5C 376.491,337.198 362.825,334.365 350.5,325C 347.553,322.564 345.22,319.731 343.5,316.5C 343.414,315.504 343.748,314.671 344.5,314C 347.065,311.92 349.732,310.087 352.5,308.5C 356.993,314.174 362.659,318.008 369.5,320C 365.264,314.565 360.264,310.065 354.5,306.5C 356.097,303.404 357.264,300.07 358,296.5C 358.171,291.467 358.671,286.467 359.5,281.5C 360.831,283.867 362.164,286.2 363.5,288.5 Z"/></g>
<g><path style="opacity:1" fill="#eef5e3" d="M 279.5,301.5 C 276.772,304.899 274.439,308.566 272.5,312.5C 259.965,321.043 254.298,333.043 255.5,348.5C 253.156,343.809 250.489,343.475 247.5,347.5C 248.046,336.639 244.88,326.972 238,318.5C 235.894,315.882 233.394,313.882 230.5,312.5C 229.89,311.609 229.557,310.609 229.5,309.5C 233.925,310.287 237.925,311.954 241.5,314.5C 241.491,316.308 241.991,317.975 243,319.5C 246.154,322.652 248.487,326.319 250,330.5C 250.98,328.941 251.813,327.274 252.5,325.5C 253.086,325.709 253.586,326.043 254,326.5C 257.579,322.596 260.745,318.429 263.5,314C 265.5,312.667 267.5,311.333 269.5,310C 271.862,305.788 275.195,302.955 279.5,301.5 Z"/></g>
<g><path style="opacity:1" fill="#618a29" d="M 197.5,317.5 C 199.927,317.523 202.26,318.023 204.5,319C 209.483,322.828 214.816,326.162 220.5,329C 222.037,330.11 222.703,331.61 222.5,333.5C 224.855,332.215 226.688,332.215 228,333.5C 229.559,335.217 230.392,337.217 230.5,339.5C 230.395,343.319 229.562,346.986 228,350.5C 225.301,345.813 222.634,341.147 220,336.5C 217.793,333.436 214.959,331.436 211.5,330.5C 211.5,329.5 211.5,328.5 211.5,327.5C 206.038,327.239 201.372,325.239 197.5,321.5C 196.193,320.135 196.193,318.802 197.5,317.5 Z"/></g>
<g><path style="opacity:1" fill="#063411" d="M 183.5,309.5 C 186.251,313.757 189.584,317.59 193.5,321C 200.167,325.333 206.833,329.667 213.5,334C 217.211,337.954 220.544,342.121 223.5,346.5C 218.4,340.909 212.734,335.742 206.5,331C 203.859,328.791 201.025,328.291 198,329.5C 197.176,328.192 196.676,326.692 196.5,325C 194.326,324.123 192.659,324.623 191.5,326.5C 185.215,322.437 181.881,316.604 181.5,309C 181.856,306.041 182.522,306.208 183.5,309.5 Z"/></g>
<g><path style="opacity:1" fill="#648f2d" d="M 315.5,311.5 C 316.167,311.5 316.833,311.5 317.5,311.5C 314.112,315.554 310.446,319.221 306.5,322.5C 302.904,323.199 299.404,324.199 296,325.5C 295.667,325.167 295.333,324.833 295,324.5C 290.336,327.983 285.503,331.316 280.5,334.5C 280.709,335.086 281.043,335.586 281.5,336C 279.266,338.704 276.433,340.537 273,341.5C 272.505,339.527 272.338,337.527 272.5,335.5C 273.962,333.745 275.795,332.412 278,331.5C 278.333,331.833 278.667,332.167 279,332.5C 281.879,329.957 284.379,327.123 286.5,324C 291.44,321.742 296.44,320.742 301.5,321C 303.863,320.411 304.863,318.911 304.5,316.5C 309.022,316.47 312.689,314.803 315.5,311.5 Z"/></g>
<g><path style="opacity:1" fill="#8bb25c" d="M 293.5,290.5 C 296.836,292.051 300.169,293.385 303.5,294.5C 302.833,294.833 302.167,295.167 301.5,295.5C 297.207,295.754 292.874,296.087 288.5,296.5C 291.349,298.402 294.349,299.902 297.5,301C 293.013,302.378 289.513,301.212 287,297.5C 286.667,297.833 286.333,298.167 286,298.5C 284.439,302.258 282.773,305.924 281,309.5C 280.088,314.464 279.588,319.464 279.5,324.5C 278.489,326.372 277.655,328.372 277,330.5C 273.906,330.793 272.406,332.459 272.5,335.5C 271.833,336.167 271.167,336.833 270.5,337.5C 270.649,336.448 270.483,335.448 270,334.5C 265.533,342.321 264.367,350.654 266.5,359.5C 262.238,357.74 259.072,354.74 257,350.5C 256.517,351.448 256.351,352.448 256.5,353.5C 255.549,352.081 255.216,350.415 255.5,348.5C 254.298,333.043 259.965,321.043 272.5,312.5C 270.913,318.294 271.247,323.96 273.5,329.5C 274.861,327.972 276.028,326.305 277,324.5C 277.314,315.242 279.481,306.575 283.5,298.5C 286.545,295.453 289.878,292.787 293.5,290.5 Z"/></g>
<g><path style="opacity:1" fill="#537f28" d="M 306.5,322.5 C 299.941,326.059 293.941,330.392 288.5,335.5C 285.87,337.628 283.37,339.961 281,342.5C 279.311,346.56 277.144,350.227 274.5,353.5C 272.145,348.433 270.812,343.099 270.5,337.5C 271.167,336.833 271.833,336.167 272.5,335.5C 272.338,337.527 272.505,339.527 273,341.5C 276.433,340.537 279.266,338.704 281.5,336C 281.043,335.586 280.709,335.086 280.5,334.5C 285.503,331.316 290.336,327.983 295,324.5C 295.333,324.833 295.667,325.167 296,325.5C 299.404,324.199 302.904,323.199 306.5,322.5 Z"/></g>
<g><path style="opacity:1" fill="#91b55e" d="M 230.5,312.5 C 233.394,313.882 235.894,315.882 238,318.5C 244.88,326.972 248.046,336.639 247.5,347.5C 245.99,349.322 244.657,351.322 243.5,353.5C 242.04,355.463 240.373,357.296 238.5,359C 237.668,359.688 237.002,359.521 236.5,358.5C 238.631,350.276 237.464,342.609 233,335.5C 232.517,336.448 232.351,337.448 232.5,338.5C 232.167,338.5 231.833,338.5 231.5,338.5C 231.219,336.037 230.219,333.87 228.5,332C 229.756,331.583 230.423,330.75 230.5,329.5C 231.768,323.825 231.768,318.158 230.5,312.5 Z"/></g>
<g><path style="opacity:1" fill="#0a3123" d="M 335.5,321.5 C 348.599,330.203 355.266,342.37 355.5,358C 336.803,357.994 323.136,349.828 314.5,333.5C 314.5,333.167 314.5,332.833 314.5,332.5C 318.62,332.251 322.62,332.251 326.5,332.5C 326.833,332.167 327.167,331.833 327.5,331.5C 326.167,330.833 324.833,330.167 323.5,329.5C 327.243,325.68 330.243,321.346 332.5,316.5C 333.001,318.655 334.001,320.322 335.5,321.5 Z M 328.5,335.5 C 331.301,336.735 333.968,338.235 336.5,340C 338.007,340.837 338.507,342.004 338,343.5C 334.961,342.397 332.127,340.897 329.5,339C 328.663,337.989 328.33,336.822 328.5,335.5 Z"/></g>
<g><path style="opacity:1" fill="#0e3325" d="M 187.5,333.5 C 179.133,350.197 165.466,358.531 146.5,358.5C 146.738,341.623 154.071,328.957 168.5,320.5C 169.117,320.389 169.617,320.056 170,319.5C 172.189,322.545 173.856,325.879 175,329.5C 175.333,329.167 175.667,328.833 176,328.5C 176.833,330.667 178.333,332.167 180.5,333C 180.167,333.333 179.833,333.667 179.5,334C 182.167,334.667 182.167,335.333 179.5,336C 179.982,337.008 180.148,338.175 180,339.5C 181.319,337.513 183.152,336.346 185.5,336C 184.391,334.187 185.058,333.354 187.5,333.5 Z M 164.5,342.5 C 166.661,338.844 169.828,336.511 174,335.5C 174.163,337.387 173.329,338.887 171.5,340C 169.35,341.411 167.016,342.245 164.5,342.5 Z"/></g>
<g><path style="opacity:1" fill="#133e17" d="M 270.5,337.5 C 270.812,343.099 272.145,348.433 274.5,353.5C 272.967,355.355 271.3,357.188 269.5,359C 268.552,359.483 267.552,359.649 266.5,359.5C 264.367,350.654 265.533,342.321 270,334.5C 270.483,335.448 270.649,336.448 270.5,337.5 Z"/></g>
<g><path style="opacity:1" fill="#0c3325" d="M 321.5,366.5 C 321.334,372.509 321.501,378.509 322,384.5C 323.039,383.756 323.539,382.756 323.5,381.5C 326.362,372.869 326.028,364.369 322.5,356C 327.815,358.64 333.482,360.807 339.5,362.5C 340.512,370.27 339.012,377.604 335,384.5C 328.968,394.364 321.135,402.364 311.5,408.5C 311.167,408.167 310.833,407.833 310.5,407.5C 309.274,387.139 304.94,367.472 297.5,348.5C 299.845,343.99 303.345,340.656 308,338.5C 315.428,346.357 319.928,355.69 321.5,366.5 Z"/></g>
<g><path style="opacity:1" fill="#0e3526" d="M 193.5,338.5 C 194.552,338.351 195.552,338.517 196.5,339C 197.878,340.713 199.545,342.047 201.5,343C 203.448,344.439 204.781,346.272 205.5,348.5C 198.091,366.037 193.924,384.37 193,403.5C 192.784,405.384 192.117,407.051 191,408.5C 174.638,398.289 164.805,383.622 161.5,364.5C 167.635,361.83 173.468,358.497 179,354.5C 178.174,359.756 177.341,365.09 176.5,370.5C 177.012,374.261 177.845,377.928 179,381.5C 179.357,365.596 184.19,351.262 193.5,338.5 Z"/></g>
<g><path style="opacity:1" fill="#103b1a" d="M 243.5,353.5 C 245.765,353.441 246.098,354.274 244.5,356C 242.71,357.734 240.71,359.234 238.5,360.5C 237.294,362.484 237.294,364.484 238.5,366.5C 238,366.833 237.5,367.167 237,367.5C 235.606,366.387 234.439,365.053 233.5,363.5C 232.167,364.5 230.833,365.5 229.5,366.5C 226.556,360.318 224.556,353.651 223.5,346.5C 225.192,348.514 226.525,350.848 227.5,353.5C 230.238,348.893 231.904,343.893 232.5,338.5C 232.351,337.448 232.517,336.448 233,335.5C 237.464,342.609 238.631,350.276 236.5,358.5C 237.002,359.521 237.668,359.688 238.5,359C 240.373,357.296 242.04,355.463 243.5,353.5 Z"/></g>
<g><path style="opacity:0.463" fill="#648073" d="M 321.5,366.5 C 322.167,371.5 322.833,376.5 323.5,381.5C 323.539,382.756 323.039,383.756 322,384.5C 321.501,378.509 321.334,372.509 321.5,366.5 Z"/></g>
<g><path style="opacity:1" fill="#0f3525" d="M 309.5,327.5 C 309.167,328.167 308.833,328.833 308.5,329.5C 301.566,334.588 294.733,339.921 288,345.5C 282.324,352.536 280.324,360.536 282,369.5C 283.001,372.173 284.501,374.507 286.5,376.5C 287.192,370.47 288.025,364.47 289,358.5C 289.635,354.898 290.968,354.232 293,356.5C 298.667,367.836 301.834,379.836 302.5,392.5C 292.861,391.452 284.194,387.952 276.5,382C 271.3,377.135 266.467,371.968 262,366.5C 259.063,362.626 257.229,358.293 256.5,353.5C 256.351,352.448 256.517,351.448 257,350.5C 259.072,354.74 262.238,357.74 266.5,359.5C 267.552,359.649 268.552,359.483 269.5,359C 271.3,357.188 272.967,355.355 274.5,353.5C 277.144,350.227 279.311,346.56 281,342.5C 283.37,339.961 285.87,337.628 288.5,335.5C 295.528,331.419 302.695,327.419 310,323.5C 310.195,324.819 310.028,326.153 309.5,327.5 Z"/></g>
<g><path style="opacity:1" fill="#103727" d="M 223.5,346.5 C 224.556,353.651 226.556,360.318 229.5,366.5C 230.833,365.5 232.167,364.5 233.5,363.5C 234.439,365.053 235.606,366.387 237,367.5C 237.5,367.167 238,366.833 238.5,366.5C 237.294,364.484 237.294,362.484 238.5,360.5C 240.71,359.234 242.71,357.734 244.5,356C 246.098,354.274 245.765,353.441 243.5,353.5C 244.657,351.322 245.99,349.322 247.5,347.5C 247.466,352.438 246.299,357.104 244,361.5C 234.056,378.285 219.556,388.618 200.5,392.5C 200.883,378.966 204.383,366.299 211,354.5C 213.087,356.745 214.421,359.412 215,362.5C 215.492,367.551 215.492,372.551 215,377.5C 218.895,373.496 221.062,368.663 221.5,363C 220.511,356.697 218.344,350.863 215,345.5C 207.739,339.46 200.239,333.793 192.5,328.5C 192.167,327.833 191.833,327.167 191.5,326.5C 192.659,324.623 194.326,324.123 196.5,325C 196.676,326.692 197.176,328.192 198,329.5C 201.025,328.291 203.859,328.791 206.5,331C 212.734,335.742 218.4,340.909 223.5,346.5 Z"/></g>
<g><path style="opacity:1" fill="#0e3427" d="M 250.5,363.5 C 267.919,380.516 272.419,400.516 264,423.5C 261.588,428.659 258.921,433.659 256,438.5C 252.129,443.992 248.796,443.658 246,437.5C 229.461,411.62 230.961,386.954 250.5,363.5 Z M 251.5,394.5 C 252.818,401.011 252.818,407.678 251.5,414.5C 250.208,407.777 250.208,401.111 251.5,394.5 Z"/></g>
<g><path style="opacity:0.8" fill="#5b6f60" d="M 278.5,391.5 C 277.167,391.5 275.833,391.5 274.5,391.5C 274.5,393.167 274.5,394.833 274.5,396.5C 273.746,393.977 273.08,391.311 272.5,388.5C 272.833,388.167 273.167,387.833 273.5,387.5C 275.21,388.887 276.877,390.221 278.5,391.5 Z"/></g>
<g><path style="opacity:1" fill="#3b5b4a" d="M 280.5,392.5 C 282.417,393.116 283.584,394.45 284,396.5C 284.174,401.684 284.674,406.684 285.5,411.5C 285.013,412.473 284.513,413.473 284,414.5C 284.079,406.897 282.912,399.564 280.5,392.5 Z"/></g>
<g><path style="opacity:1" fill="#113a27" d="M 278.5,391.5 C 279.167,391.833 279.833,392.167 280.5,392.5C 282.912,399.564 284.079,406.897 284,414.5C 284.513,413.473 285.013,412.473 285.5,411.5C 287.296,406.65 288.63,401.65 289.5,396.5C 293.351,398.129 297.351,399.129 301.5,399.5C 299.416,416.078 290.916,428.078 276,435.5C 275.228,435.355 274.561,435.022 274,434.5C 272.993,431.425 272.493,428.258 272.5,425C 273.36,415.509 274.027,406.009 274.5,396.5C 274.5,394.833 274.5,393.167 274.5,391.5C 275.833,391.5 277.167,391.5 278.5,391.5 Z"/></g>
<g><path style="opacity:1" fill="#123c28" d="M 216.5,410.5 C 216.987,411.473 217.487,412.473 218,413.5C 218.499,408.177 218.666,402.844 218.5,397.5C 218.238,396.022 218.571,394.689 219.5,393.5C 223.067,392.093 226.234,390.093 229,387.5C 228.23,400.021 228.73,412.521 230.5,425C 231.043,436.763 227.043,438.597 218.5,430.5C 208.403,422.643 202.736,412.309 201.5,399.5C 205.649,399.129 209.649,398.129 213.5,396.5C 214.338,401.219 215.338,405.886 216.5,410.5 Z"/></g>
<g><path style="opacity:0.353" fill="#8ca79a" d="M 218.5,397.5 C 218.666,402.844 218.499,408.177 218,413.5C 217.487,412.473 216.987,411.473 216.5,410.5C 217.167,406.167 217.833,401.833 218.5,397.5 Z"/></g>
</svg>
